<svg width="32" height="39" viewBox="0 0 32 39" fill="none" xmlns="http://www.w3.org/2000/svg">
<path d="M11.6823 16.2291C11.8164 11.3224 12.8511 6.48202 14.7348 1.94869C14.9326 1.49948 15.2698 0.924484 15.7778 0.973898C16.2858 1.02331 16.4836 1.53542 16.6275 1.98013C17.5989 4.97323 18.2543 8.05963 18.5831 11.189C18.5717 11.6549 18.7317 12.1088 19.0327 12.4647C19.6846 13.0532 20.6961 12.4647 21.3974 11.9526C23.8531 10.1018 26.6214 8.70662 29.5705 7.83337C29.1704 11.5843 25.1063 13.754 23.3215 17.0826C23.1126 17.42 23.0151 17.8144 23.0428 18.2102C23.1555 18.6569 23.4093 19.0554 23.7666 19.3467L31.7914 27.401C27.9431 28.4657 24.0139 26.3095 20.6062 24.2566C20.7135 28.9213 20.2469 33.5816 19.217 38.1327C16.9955 34.6053 15.3915 30.7255 14.4741 26.6598L7.75754 31.956C8.1059 29.5869 9.1262 27.3671 10.6977 25.5593C11.1787 25.0157 11.7407 24.4138 11.6868 23.6905C11.6328 22.9673 10.9585 22.4372 10.338 22.024L0.748779 15.5149C1.10127 15.119 1.58249 14.8604 2.10736 14.7848C2.63223 14.7091 3.16696 14.8214 3.61702 15.1016L11.6823 16.2291Z" fill="#F7BC28"/>
</svg>
