<svg width="32" height="38" viewBox="0 0 32 38" fill="none" xmlns="http://www.w3.org/2000/svg">
<path d="M11.8712 16.0727C12.0058 11.1675 13.0404 6.32862 14.9237 1.79673C15.1215 1.32506 15.4587 0.772526 15.9667 0.821939C16.4747 0.871352 16.6725 1.38345 16.8164 1.82817C17.792 4.82013 18.4476 7.90698 18.772 11.037C18.7615 11.5028 18.9213 11.9564 19.2216 12.3128C19.8779 12.9012 20.885 12.3128 21.5863 11.8007C24.042 9.94989 26.8103 8.55466 29.7594 7.68141C29.3593 11.4323 25.2952 13.602 23.5105 16.9307C23.297 17.2634 23.1933 17.6545 23.2137 18.0492C23.3282 18.4952 23.5817 18.8932 23.9375 19.1857L31.9668 27.2401C28.114 28.3047 24.1893 26.1485 20.7771 24.0956C20.8844 28.7604 20.4178 33.4207 19.3879 37.9718C17.1688 34.4431 15.565 30.5637 14.645 26.4989L7.90145 31.8265C8.24535 29.457 9.26448 27.2363 10.8371 25.4298C11.3182 24.8862 11.8802 24.2843 11.8262 23.561C11.7723 22.8378 11.0979 22.3077 10.4775 21.8945L0.897217 15.3809C1.24659 14.9803 1.72824 14.7182 2.25459 14.6424C2.78094 14.5666 3.31704 14.682 3.76546 14.9676L11.8712 16.0727Z" fill="#FAC7B7"/>
</svg>
