<svg width="19" height="22" viewBox="0 0 19 22" fill="none" xmlns="http://www.w3.org/2000/svg">
<path d="M6.87233 9.0171C6.94974 6.19685 7.5456 3.41487 8.63016 0.809992C8.74255 0.535972 8.93584 0.221524 9.22806 0.248477C9.52028 0.27543 9.63266 0.571913 9.71807 0.827964C10.2765 2.54761 10.6517 4.32134 10.8375 6.11968C10.8338 6.38923 10.9281 6.65098 11.1028 6.85639C11.4804 7.1933 12.0604 6.85639 12.4515 6.55991C13.8621 5.49475 15.4536 4.69277 17.1494 4.19256C16.9202 6.34877 14.5824 7.5931 13.5529 9.50674C13.4311 9.69816 13.3714 9.92251 13.3821 10.1491C13.4489 10.4062 13.5952 10.6357 13.8002 10.805L18.4397 15.4274C16.2278 16.0383 13.971 14.7985 12.0109 13.608C12.0709 16.2886 11.8022 18.9663 11.2107 21.5816C9.93561 19.5533 9.01436 17.3235 8.48626 14.9871L4.62449 18.0507C4.82086 16.6893 5.40624 15.4134 6.31037 14.3762C6.63331 14.1049 6.83673 13.7178 6.87683 13.2981C6.84536 12.8758 6.4587 12.5793 6.10803 12.3413L0.60083 8.59932C0.802197 8.36949 1.07919 8.21918 1.38176 8.17552C1.68432 8.13185 1.99255 8.19773 2.25076 8.36124L6.87233 9.0171Z" fill="#F7BC28"/>
</svg>
