<svg width="27" height="35" viewBox="0 0 27 35" fill="none" xmlns="http://www.w3.org/2000/svg">
<path d="M20.8943 30.8257C20.1462 29.8238 19.4931 28.7546 18.9431 27.6318C18.7993 27.3443 18.6599 27.0568 18.5295 26.7649C18.4621 26.6166 18.3947 26.4684 18.3317 26.3156C18.3093 26.2707 18.2733 26.1225 18.2328 26.091C18.3138 26.1539 18.3857 26.4684 18.2688 26.1719C17.9946 25.4981 17.7338 24.8243 17.5 24.128C17.0415 22.7818 16.6587 21.4111 16.3536 20.0222C16.2008 19.3169 16.0659 18.6027 15.9535 17.8884C15.9387 17.7255 15.9147 17.5635 15.8816 17.4033C15.8816 17.4033 15.9355 17.8525 15.9041 17.6009L15.8771 17.3628C15.8351 17.0214 15.7992 16.68 15.7692 16.3386C15.6681 15.1174 15.6681 13.8898 15.7692 12.6686C15.8007 12.2598 15.6793 13.1582 15.7692 12.7674C15.7917 12.6506 15.8097 12.5293 15.8366 12.4125C15.8939 12.1501 15.9644 11.8907 16.0479 11.6354C16.0839 11.5321 16.1244 11.4332 16.1603 11.3299C16.2772 10.9795 15.9266 11.7791 16.0974 11.4737C16.2008 11.2805 16.2952 11.0829 16.4121 10.8942C16.4615 10.8133 16.52 10.7325 16.5694 10.6516C16.7807 10.3147 16.3581 10.8897 16.4481 10.7998C16.538 10.71 16.7088 10.4899 16.8527 10.3506C16.9965 10.2114 17.4551 9.83854 17.1044 10.1126C16.7538 10.3866 17.2663 10.0137 17.3876 9.94187C17.509 9.86999 17.6978 9.78464 17.8372 9.70378C18.1339 9.54656 17.3022 9.89245 17.6214 9.79362C17.7158 9.76667 17.8102 9.72624 17.9046 9.69479C18.071 9.64538 18.2373 9.60045 18.4037 9.56452L18.6959 9.51061C19.0016 9.44323 18.062 9.56003 18.4801 9.54206C18.8335 9.5241 19.1876 9.5241 19.5411 9.54206C19.9142 9.56452 19.4062 9.54206 19.2803 9.50163C19.362 9.51947 19.4445 9.53297 19.5276 9.54206C19.7074 9.578 19.8872 9.61843 20.0626 9.66784C20.2379 9.71725 20.4042 9.78913 20.5751 9.84304C20.8853 9.94636 20.0536 9.59147 20.3413 9.7487L20.602 9.87447C20.7459 9.95084 20.8898 10.0362 21.0246 10.126C21.0892 10.1765 21.1568 10.223 21.227 10.2653C21.2854 10.2967 20.7774 9.8655 21.0606 10.1395C21.191 10.2563 21.3213 10.3731 21.4382 10.4989L21.6001 10.6831C21.8698 10.9706 21.3214 10.2608 21.4742 10.5124C21.5551 10.6561 21.654 10.7819 21.7305 10.9256C21.7709 10.9975 21.8024 11.0739 21.8429 11.1458C21.9912 11.3973 21.6405 10.5663 21.7619 10.9526C21.8114 11.1143 21.8698 11.2715 21.9058 11.4332C21.919 11.5195 21.937 11.605 21.9597 11.6893C22.0272 11.86 21.9148 11.285 21.9103 11.3075C21.9058 11.3299 21.9103 11.4602 21.9328 11.5321C21.9328 11.7162 21.9328 11.8959 21.9328 12.0846C21.9328 12.1789 21.9328 12.2778 21.9328 12.3676C21.9328 12.5832 21.9957 11.9813 21.9822 12.0172C21.9687 12.0532 21.9822 12.152 21.9507 12.2149C21.9058 12.4215 21.8608 12.6281 21.8024 12.8303C21.7709 12.9381 21.7395 13.0414 21.7035 13.1447C21.6675 13.2481 21.654 13.266 21.636 13.3244C21.5416 13.6029 21.8294 12.965 21.6765 13.2076C21.5956 13.3379 21.5371 13.4771 21.4562 13.6029C21.3753 13.7287 21.3393 13.7646 21.2899 13.8545C21.1685 14.0791 21.4113 13.6658 21.4158 13.6928C21.4517 13.8141 20.8358 14.2992 20.7414 14.3846C20.7144 14.3846 20.6065 14.5283 20.5706 14.5283C20.5346 14.5283 20.9392 14.2678 20.7234 14.4025C20.5975 14.4834 20.4762 14.5777 20.3458 14.6541C20.0634 14.8277 19.7723 14.9866 19.4736 15.1303C19.0915 15.3189 19.8423 14.9955 19.4422 15.1303C19.2983 15.1842 19.1544 15.2426 18.9926 15.292C18.6554 15.4043 18.3093 15.5031 17.9631 15.5885C17.6169 15.6738 17.3742 15.7187 17.064 15.7681L16.8437 15.7996C16.5919 15.8445 17.0864 15.7681 17.0819 15.7681C16.9066 15.7681 16.7088 15.8086 16.5335 15.8176C15.8946 15.8692 15.2527 15.8692 14.6138 15.8176L14.0878 15.7681L14.3081 15.7951C14.234 15.7784 14.1589 15.7664 14.0833 15.7592C13.7641 15.7053 13.4449 15.6379 13.1302 15.557C12.5286 15.3998 11.9371 15.2063 11.359 14.9775C11.1207 14.8922 11.5613 15.0539 11.5523 15.0584C11.5433 15.0629 11.3724 14.9775 11.35 14.9685L10.9453 14.7754C10.6351 14.6182 10.3339 14.452 10.0462 14.2723C9.75849 14.0926 9.54269 13.9623 9.29993 13.7916C9.17854 13.7063 9.06166 13.6119 8.93578 13.5311C8.72448 13.3918 9.10662 13.6613 9.09763 13.6568C9.08864 13.6523 8.9268 13.5221 8.86386 13.4727C8.36884 13.0641 7.90173 12.6229 7.4657 12.152C7.2634 11.9319 7.07458 11.7028 6.88127 11.4782C6.61153 11.1592 7.11055 11.8061 6.88127 11.4782C6.78236 11.3389 6.67896 11.1997 6.58005 11.0559C6.22918 10.5434 5.91374 10.0076 5.63596 9.45221C5.57302 9.32194 5.50559 9.18718 5.44265 9.04793C5.39376 8.96212 5.35312 8.87187 5.32127 8.7784C5.32127 8.7784 5.49211 9.22761 5.40669 8.96707C5.32127 8.70653 5.17741 8.36063 5.083 8.06865C4.89494 7.46315 4.74479 6.84654 4.63343 6.22239C4.58398 5.97083 4.66041 6.447 4.66041 6.4425C4.65586 6.36568 4.64685 6.28918 4.63343 6.2134C4.61545 6.06067 4.60197 5.91093 4.59297 5.76419C4.566 5.40033 4.55701 5.03647 4.5615 4.67261C4.566 4.30875 4.58398 4.03921 4.61545 3.72476C4.61545 3.63941 4.68288 3.12732 4.63792 3.46872C4.59296 3.81012 4.68288 3.1947 4.69637 3.12282C4.90317 1.97284 4.38617 0.647667 3.12738 0.360172C2.03044 0.113105 0.582835 0.692584 0.362548 1.92792C-0.251328 5.21292 0.207288 8.6081 1.67079 11.6129C3.04167 14.3677 5.18265 16.6662 7.83435 18.2298C10.5442 19.8609 13.7004 20.5951 16.8527 20.3276C20.1345 20.0042 23.8075 18.7284 25.4664 15.6424C26.6352 13.4682 26.8151 10.6696 25.5023 8.51336C24.958 7.65371 24.2403 6.9169 23.395 6.34995C22.5497 5.78301 21.5955 5.39839 20.5931 5.22065C19.4655 5.00102 18.3036 5.02825 17.1876 5.30045C16.0715 5.57265 15.0278 6.08336 14.1283 6.79738C12.1322 8.38759 11.3455 10.9077 11.2106 13.3694C11.1181 16.478 11.497 19.5828 12.3345 22.5782C13.1 25.6973 14.3017 28.6931 15.9041 31.4771C16.2445 32.046 16.6151 32.5964 17.0145 33.1257C17.7203 34.06 18.9836 34.644 20.0895 33.9298C21.0111 33.3368 21.654 31.8589 20.8943 30.8572V30.8257Z" fill="#39B55D"/>
</svg>
