<svg width="29" height="33" viewBox="0 0 29 33" fill="none" xmlns="http://www.w3.org/2000/svg">
<g id="swirl4">
<path id="Vector" d="M6.7454 32.2505C9.3673 31.7737 11.8056 30.5801 13.7896 28.8022C15.7736 27.0244 17.2257 24.7318 17.9846 22.1792C19.549 16.7213 17.6788 10.1268 12.7965 6.9509C11.5989 6.16684 10.222 5.69878 8.79435 5.59037C7.36669 5.48197 5.93483 5.73676 4.6324 6.33098C3.33146 6.93549 2.26569 7.95089 1.59948 9.22056C0.933265 10.4902 0.703648 11.9437 0.945981 13.3567C1.39555 16.3664 4.05246 18.3384 7.04207 18.298C9.82039 18.2531 12.6437 16.9504 15.0668 15.6971C20.2933 12.971 24.6754 8.87041 27.7401 3.83786C28.031 3.32432 28.108 2.717 27.9544 2.1472C27.8008 1.5774 27.4289 1.09091 26.9192 0.792874C26.4095 0.494838 25.8029 0.409207 25.2305 0.554504C24.6581 0.699801 24.1659 1.06436 23.8604 1.56934C23.5861 2.01856 23.2984 2.46777 23.0017 2.91698C22.8533 3.1326 22.705 3.36619 22.5521 3.56385L22.2959 3.91871C22.224 4.01305 21.8913 4.43533 22.2194 4.02205C21.5484 4.87122 20.8342 5.68536 20.0795 6.46127C19.3216 7.23659 18.5233 7.97131 17.6878 8.66239L17.0719 9.15654C16.7932 9.38115 17.499 8.84209 17.0359 9.179L16.7572 9.39011C16.3076 9.71804 15.8581 10.0325 15.3815 10.338C14.4728 10.9279 13.5334 11.4692 12.5673 11.9596C12.0937 12.1962 11.6172 12.4208 11.1376 12.6334L10.8139 12.7727C11.2635 12.5795 10.8994 12.7323 10.7825 12.7727C10.4858 12.894 10.1846 13.0063 9.88336 13.1186C9.39783 13.2938 8.90329 13.46 8.39977 13.5948C8.12554 13.6666 7.84682 13.725 7.56808 13.7789C7.11852 13.8688 7.5411 13.7789 7.60853 13.7789C7.42513 13.8156 7.23767 13.8277 7.05107 13.8149C6.89822 13.8149 6.74537 13.8149 6.60151 13.8149C6.27332 13.8149 7.10055 13.9586 6.57456 13.8149C6.39473 13.7699 5.83723 13.5543 6.25533 13.7654C6.14744 13.7115 6.03506 13.6576 5.93166 13.5948C5.82826 13.5319 5.50457 13.4285 5.81926 13.5274C6.13396 13.6262 5.85071 13.5274 5.73832 13.4285L5.64393 13.3297C5.49108 13.1455 5.52253 13.1904 5.73832 13.46C5.73832 13.4106 5.50455 13.0602 5.45959 12.9883C5.2393 12.5975 5.52706 13.3522 5.50009 13.0782C5.47545 12.9636 5.44235 12.851 5.40114 12.7412C5.37867 12.6514 5.36074 12.5616 5.34275 12.4717C5.24834 12.0764 5.38771 12.6199 5.34275 12.6469C5.36497 12.4123 5.36497 12.1762 5.34275 11.9416C5.34275 11.4924 5.22137 12.3235 5.34275 12.0495C5.38321 11.9417 5.39217 11.8159 5.42364 11.7036C5.45511 11.5913 5.48211 11.5239 5.50459 11.4341C5.61249 11.0432 5.47761 11.5778 5.43714 11.5778C5.54954 11.5778 5.64396 10.9803 5.79232 10.9713C5.79232 10.9713 5.41913 11.3846 5.73832 11.0612L6.07105 10.7288C6.37226 10.4323 5.99009 10.7647 5.9766 10.7827C6.02605 10.7018 6.21486 10.621 6.30028 10.567C6.48999 10.4255 6.7009 10.3149 6.92518 10.2391C6.88472 10.2391 6.43067 10.4143 6.82629 10.293L7.13202 10.2032C7.2579 10.1672 7.38826 10.1358 7.51414 10.1089L7.75242 10.0639L7.54558 10.0909C7.78835 10.0909 8.02217 10.0594 8.26493 10.0639C8.37283 10.0639 8.47621 10.0639 8.58411 10.0639C9.10561 10.0639 8.21548 9.98307 8.53916 10.0639C8.77743 10.1178 8.98871 10.1583 9.24496 10.2301L9.56863 10.3335C10.1036 10.5042 9.16406 10.1179 9.65858 10.3649C9.88786 10.4817 10.1081 10.594 10.3329 10.7288C10.4813 10.8186 10.8724 10.9893 10.9668 11.178C10.8319 10.9444 10.7465 10.9938 10.9128 11.1421L11.2321 11.4251C11.4434 11.6227 11.6456 11.8249 11.8345 12.0405C11.9334 12.1438 12.0233 12.2561 12.1177 12.3639C12.2121 12.4717 12.3245 12.4627 12.0817 12.3145C12.2663 12.5005 12.4182 12.7161 12.5313 12.9524C12.8329 13.4339 13.1017 13.9352 13.336 14.4527C13.1292 14.0035 13.3045 14.3854 13.336 14.5021C13.3675 14.6189 13.4394 14.7852 13.4889 14.9514C13.5653 15.1805 13.6372 15.4006 13.7002 15.6432C13.7631 15.8857 13.8306 16.1687 13.8845 16.4338C13.916 16.582 13.9384 16.7302 13.9699 16.883C14.0598 17.3636 13.9429 16.4742 13.9699 17.0043C13.9969 17.5343 14.0508 18.0869 14.0374 18.6304C14.0374 18.873 14.0149 19.1156 13.9969 19.3536C13.9961 19.4743 13.984 19.5946 13.9609 19.713C14.1227 19.1964 13.9609 19.713 13.9609 19.8343C13.845 20.4876 13.6767 21.1306 13.4574 21.7569L13.3315 22.0938C13.1202 22.6554 13.5338 21.6851 13.2731 22.2241C13.1517 22.4757 13.0303 22.7227 12.8954 22.9608C12.7606 23.1989 12.6167 23.4415 12.4459 23.6706C12.3694 23.7874 12.2885 23.8997 12.2121 24.012C12.1357 24.1243 11.8255 24.5016 12.0412 24.2501C12.257 23.9985 11.9199 24.3893 11.9019 24.4073C11.794 24.5331 11.6861 24.6588 11.5737 24.7801C11.3849 24.9823 11.1916 25.1799 10.9893 25.3686C10.787 25.5573 10.5847 25.7415 10.3689 25.9211C10.288 25.9885 10.2026 26.0649 10.1126 26.1278C10.5622 25.8088 10.1396 26.0963 10.0317 26.1727C9.53519 26.5217 9.01381 26.834 8.47172 27.107L8.17049 27.2508L7.9457 27.3541C7.79285 27.4215 7.84229 27.399 8.10304 27.2912C7.83766 27.3722 7.57658 27.4667 7.3208 27.5742C6.74213 27.7603 6.14996 27.9015 5.54954 27.9965C4.38965 28.1897 3.63439 29.69 3.98055 30.7591C4.38966 32.0214 5.5001 32.556 6.7454 32.3314V32.2505Z" fill="#39B55D"/>
</g>
</svg>
