<svg width="28" height="31" viewBox="0 0 28 31" fill="none" xmlns="http://www.w3.org/2000/svg">
<path d="M4.64148 29.3178C4.72689 29.0123 4.81681 28.7159 4.9247 28.4194C4.96966 28.2801 5.02361 28.1408 5.07756 28.0061C5.09352 27.9334 5.12082 27.8637 5.15847 27.7995C5.11352 27.7995 4.96066 28.2486 5.10902 27.9252C5.38623 27.3301 5.69693 26.7512 6.03963 26.1912C6.21496 25.9082 6.39928 25.6297 6.59259 25.3602L6.87132 24.9829C7.01968 24.7808 6.76343 25.1266 6.75893 25.1266C6.83086 25.0817 6.8983 24.9515 6.95674 24.8841C7.39162 24.3558 7.85696 23.8533 8.3504 23.3792C8.59766 23.1411 8.85392 22.93 9.11466 22.6919C9.23605 22.5886 9.35743 22.4853 9.48331 22.3864C9.54862 22.342 9.61025 22.2925 9.66763 22.2382C9.40238 22.4404 9.51927 22.4224 9.66763 22.2382C10.2196 21.8331 10.7961 21.4625 11.394 21.1286C11.6682 20.9804 11.9469 20.8367 12.2302 20.7019L12.6797 20.5043C12.9585 20.374 12.2796 20.657 12.5718 20.5537L12.8596 20.4414C13.4817 20.2074 14.1203 20.0197 14.7702 19.8799L15.2198 19.7945C15.2957 19.7895 15.3709 19.7775 15.4446 19.7586C15.4446 19.7586 14.968 19.8125 15.2243 19.79C15.5749 19.763 15.9256 19.7271 16.2808 19.7182C16.6359 19.7092 16.8832 19.7182 17.1799 19.7182C17.3507 19.7182 17.5395 19.7721 17.7104 19.7676C17.7104 19.7676 17.2383 19.6912 17.4901 19.7406L17.7868 19.79C18.116 19.8518 18.4417 19.9313 18.7624 20.0281C18.9107 20.0685 19.0591 20.1179 19.2119 20.1718C19.3648 20.2257 19.8188 20.4054 19.5311 20.2841C19.2434 20.1628 19.675 20.356 19.7469 20.392C19.8188 20.4279 19.9627 20.4998 20.0661 20.5627C20.1695 20.6256 20.2459 20.6705 20.3314 20.7289C20.4168 20.7873 20.7809 21.0523 20.4437 20.8007C20.1066 20.5492 20.4752 20.8367 20.5427 20.8951C20.6101 20.9535 20.7 21.0433 20.7719 21.1197C20.9383 21.2814 21.0776 21.47 21.2215 21.6362C21.3654 21.8025 21.0237 21.3712 21.0327 21.3937C21.069 21.4559 21.1112 21.5146 21.1586 21.5689L21.3384 21.8384C21.4643 22.0361 21.5767 22.2382 21.6846 22.4493C21.7204 22.5687 21.7734 22.6822 21.8419 22.7862C21.716 22.6784 21.6486 22.2741 21.779 22.647C21.8599 22.8761 21.9363 23.0962 21.9993 23.3478C22.0622 23.5993 22.0622 23.761 22.1206 23.9542C22.0667 23.7745 22.0712 23.3837 22.0892 23.7611C22.0892 23.8913 22.0892 24.0261 22.0892 24.1564C22.0892 24.2866 22.0487 24.5516 22.0577 24.7403C22.0577 24.5741 22.1656 24.1563 22.0577 24.5202C22.0307 24.6415 22.0037 24.7628 21.9678 24.8841C21.9318 24.9688 21.9018 25.0558 21.8779 25.1446C21.9048 24.9874 22.1341 24.628 21.9498 24.9425L21.8149 25.185C21.5767 25.6073 22.0847 24.911 21.8959 25.0997C21.7523 25.2223 21.6171 25.3544 21.4912 25.495C21.6216 25.3198 21.9408 25.1805 21.5857 25.4006C21.4823 25.468 21.3743 25.5174 21.2709 25.5758C20.9652 25.76 21.761 25.4141 21.4103 25.5174C21.3024 25.5534 21.1945 25.5938 21.0821 25.6207C20.9697 25.6477 20.8124 25.6882 20.673 25.7196C20.1965 25.8274 21.0776 25.7196 20.6955 25.7196C20.4437 25.7196 20.1965 25.751 19.9402 25.742C19.8368 25.742 19.7379 25.742 19.63 25.742C19.1805 25.7196 20.1021 25.8409 19.7829 25.742C19.5761 25.6926 19.3738 25.6567 19.1715 25.5938C19.0816 25.5669 18.9916 25.522 18.9017 25.4995C18.8118 25.477 19.4322 25.7556 19.0501 25.5579C18.8715 25.4694 18.6974 25.3719 18.5286 25.2659L18.2993 25.1042C18.2499 25.0772 18.7489 25.486 18.4252 25.1985C18.2768 25.0593 18.124 24.9245 17.9756 24.7762C17.9082 24.7043 17.8453 24.637 17.7823 24.5606L17.6924 24.4528C17.4946 24.2372 17.8498 24.6594 17.8632 24.6774C17.643 24.3046 17.3732 23.9677 17.1709 23.5814C17.0675 23.3792 16.9821 23.1681 16.8787 22.9704C16.8113 22.8492 17.09 23.505 16.9416 23.1142C16.8877 22.9794 16.8382 22.8491 16.7888 22.7144C16.4661 21.7953 16.2313 20.8477 16.0874 19.8844C16.0874 19.7855 16.011 19.3632 16.0874 19.781C16.1639 20.1988 16.0874 19.781 16.0874 19.6777C16.056 19.4082 16.0335 19.1387 16.011 18.8691C15.9751 18.3705 15.9526 17.8719 15.9481 17.3687C15.9481 16.4074 16.029 15.4641 16.1099 14.5073C16.1099 14.3545 16.02 15.1137 16.0829 14.6915L16.1369 14.3411C16.1729 14.1344 16.2133 13.9233 16.2538 13.7166C16.3347 13.3303 16.4291 12.9485 16.546 12.5712C16.5955 12.4005 16.6539 12.2343 16.7168 12.0636L16.7978 11.848C16.9012 11.565 16.528 12.4185 16.7034 12.0771C17.0122 11.4574 17.359 10.8573 17.7419 10.2802C17.8243 10.1364 17.9207 10.001 18.0296 9.87593C18.0296 9.87593 17.7643 10.2039 17.9307 10.0017L18.088 9.80853C18.3398 9.50756 18.6005 9.2156 18.8703 8.93709C19.14 8.65858 19.3513 8.4609 19.5986 8.2363C19.7244 8.1195 19.8548 8.01169 19.9852 7.89939L20.2459 7.68827C20.4932 7.48613 20.2459 7.63435 20.192 7.72868C20.2594 7.53552 20.8618 7.27945 21.0327 7.14469C21.3654 6.92907 21.707 6.72693 22.0577 6.53826C22.3589 6.37655 22.6646 6.2328 22.9568 6.08905C23.249 5.94531 22.9568 6.00822 22.8894 6.11603C22.8894 6.0801 23.0872 6.03514 23.1277 6.02166C23.312 5.94979 23.5008 5.88243 23.6851 5.81954C24.3846 5.58791 25.1018 5.41362 25.8296 5.29844C26.9939 5.10977 27.7447 3.60496 27.3985 2.53583C26.9894 1.27355 25.8835 0.765891 24.6337 0.968036C18.6949 1.92486 12.9809 6.77637 11.848 12.7958C11.4163 15.0408 11.3224 17.3376 11.5693 19.6103C11.8345 21.9911 12.365 24.4483 13.6868 26.4922C14.332 27.5665 15.2298 28.4671 16.3023 29.1161C17.3749 29.765 18.5897 30.1427 19.8413 30.2162C22.7051 30.3645 25.5328 28.8416 26.3331 25.9801C27.0209 23.5095 26.1712 20.7783 24.6427 18.7928C22.723 16.3086 19.612 15.1991 16.5505 15.1991C13.2692 15.2443 10.0861 16.3244 7.45576 18.2851C4.76256 20.1657 2.60706 22.7158 1.20229 25.6836C0.84031 26.457 0.539675 27.2576 0.303154 28.078C0.144575 28.6522 0.220788 29.2659 0.515031 29.784C0.809273 30.302 1.29744 30.6821 1.87214 30.8406C2.44684 30.999 3.061 30.9229 3.57951 30.6289C4.09802 30.3349 4.4784 29.8471 4.63697 29.2728L4.64148 29.3178Z" fill="#F7BC28"/>
</svg>
