<svg width="33" height="23" viewBox="0 0 33 23" fill="none" xmlns="http://www.w3.org/2000/svg">
<path d="M1.95245 22.531C10.1345 24.3773 19.4315 19.9615 22.8662 12.1991C23.8283 10.025 24.3363 7.78788 23.9497 5.41155C23.563 3.03521 21.7962 0.946373 19.3911 0.470207C16.6352 -0.0598639 13.8569 1.24735 11.8294 3.0442C11.2138 3.55348 10.7407 4.21342 10.4563 4.95974C10.1718 5.70607 10.0858 6.51329 10.2065 7.30273C10.4267 8.65037 11.4518 9.72848 12.5757 10.4472C13.8028 11.1274 15.1238 11.6224 16.4959 11.9162C17.925 12.3051 19.3769 12.6052 20.8431 12.8146C23.9005 13.2724 27.0005 13.3764 30.0817 13.1245C31.2506 13.0212 32.388 12.1632 32.3296 10.8785C32.2801 9.74646 31.336 8.52011 30.0817 8.63241C27.7996 8.83904 25.5035 8.83904 23.2214 8.63241C22.9426 8.60995 22.6594 8.5785 22.3807 8.54706L22.1559 8.52011L21.9311 8.48866C21.3377 8.39882 20.7488 8.29999 20.1598 8.1832C19.0539 7.96758 17.957 7.70254 16.878 7.3836C16.3925 7.24434 15.907 7.0961 15.4349 6.93439C15.1742 6.84005 15.3495 6.99727 15.5383 6.9793C15.4367 6.94566 15.34 6.89884 15.2506 6.84004C15.0663 6.74571 14.8909 6.63341 14.7111 6.5211C14.3335 6.28751 14.819 6.59298 14.8055 6.60196C14.792 6.61094 14.6212 6.42677 14.5852 6.39982C14.266 6.13029 14.7066 6.47619 14.6616 6.5256C14.6167 6.57501 14.5448 6.28752 14.5178 6.28752C14.5807 6.28752 14.6886 6.76368 14.5942 6.44025C14.4998 6.11682 14.5942 6.56602 14.5942 6.61544C14.5942 6.49864 14.6392 6.20666 14.5672 6.73673C14.4279 6.89845 14.6212 6.35939 14.5672 6.73673C14.6122 6.68283 14.8235 6.38184 14.6302 6.61544C14.4369 6.84903 14.6886 6.56602 14.7381 6.51661C14.7875 6.4672 15.0707 6.12131 15.1876 6.10334C14.9988 6.13029 14.9269 6.292 15.1472 6.13927L15.4394 5.93264C15.6912 5.76643 15.9474 5.6092 16.2127 5.46096C16.397 5.35764 16.5903 5.27229 16.7791 5.17347C17.0668 5.02523 16.4284 5.28577 16.7431 5.17347C16.8555 5.13753 16.9634 5.0926 17.0803 5.05667C17.3051 4.98479 17.5299 4.94886 17.7591 4.87698C18.0693 4.78714 17.3545 4.87698 17.6737 4.87698C17.8176 4.87698 17.957 4.85453 18.1233 4.85453C18.1638 4.85453 18.456 4.85453 18.4605 4.85453C18.465 4.85453 17.912 4.71977 18.3616 4.85453L18.6853 4.93988C18.964 5.01625 18.7662 4.88148 18.6223 4.90843C18.6673 4.90843 18.8741 5.05218 18.901 5.06566C18.928 5.16898 19.0989 5.16449 18.901 5.06566L18.7887 4.96234L18.946 5.09709L19.1888 5.34417C19.4675 5.6137 19.0764 5.24983 19.0899 5.2094C19.1034 5.16897 19.2202 5.40256 19.2382 5.4385C19.2562 5.47444 19.3282 5.60022 19.3731 5.67658C19.5709 6.00451 19.2967 5.56877 19.3147 5.51936C19.2877 5.59572 19.4675 5.96857 19.49 6.05392C19.5125 6.13927 19.6473 6.82208 19.5889 6.4672C19.5304 6.11232 19.5889 6.74122 19.5889 6.83106C19.5889 7.00476 19.5889 7.17994 19.5889 7.35663C19.5889 7.55878 19.5619 7.75645 19.5439 7.95859C19.5125 8.36288 19.5439 7.85976 19.5439 7.81484C19.5098 7.93674 19.4872 8.06156 19.4765 8.18768C19.3958 8.57825 19.2922 8.96375 19.1663 9.34216C19.0988 9.53532 19.0269 9.72399 18.955 9.91715C18.9219 9.98558 18.8934 10.0561 18.8696 10.1283C19.009 9.59821 18.9191 10.007 18.8696 10.1552C18.5259 10.8985 18.1214 11.6122 17.6602 12.289L17.3051 12.7876C17.2152 12.9134 17.1657 13.1021 17.377 12.6978C17.3202 12.7818 17.2571 12.8614 17.1882 12.9359C16.9094 13.2728 16.6218 13.5962 16.3205 13.9107C16.0193 14.2251 15.7766 14.4542 15.4934 14.7103C15.3405 14.8495 15.1877 14.9843 15.0438 15.1145L14.8055 15.3122C14.7471 15.3571 14.3829 15.6177 14.6706 15.42C14.9583 15.2224 14.4009 15.6132 14.3379 15.6581L13.8299 16.004C13.4613 16.2421 13.0881 16.4532 12.706 16.6778C12.3239 16.9024 11.8878 17.127 11.4652 17.2977C11.3753 17.3381 11.2674 17.3741 11.182 17.4235C11.3888 17.3022 11.5147 17.2842 11.218 17.401C11.0067 17.4864 10.7684 17.5673 10.5706 17.6436C9.69293 17.951 8.79049 18.1824 7.87319 18.3354L7.56751 18.3848C7.03703 18.4747 8.09351 18.3309 7.56751 18.3848C7.36521 18.4073 7.16291 18.4297 6.95611 18.4432C6.47301 18.4799 5.9883 18.4919 5.50397 18.4791C5.0544 18.4791 4.60486 18.4297 4.12383 18.3893C3.81363 18.3624 4.57337 18.4612 4.26766 18.3893L3.88554 18.3309C3.63379 18.286 3.38206 18.2321 3.1303 18.1782C1.98391 17.9176 0.644196 18.5241 0.365466 19.7459C0.104718 20.8869 0.707131 22.2301 1.93445 22.5086L1.95245 22.531Z" fill="#F7BC28"/>
</svg>
